<mxfile host="app.diagrams.net" modified="2023-12-08T14:43:23.123Z" agent="Mozilla/5.0 (Windows NT 10.0; Win64; x64) AppleWebKit/537.36 (KHTML, like Gecko) Chrome/120.0.0.0 Safari/537.36" etag="h2ufZgkQyzERUzQgyCkh" version="22.1.7" type="google">
  <diagram name="P치gina-1" id="29_3G5aB5RjX9G4td9Ta">
    <mxGraphModel grid="1" page="1" gridSize="10" guides="1" tooltips="1" connect="1" arrows="1" fold="1" pageScale="1" pageWidth="827" pageHeight="1169" math="0" shadow="0">
      <root>
        <mxCell id="0" />
        <mxCell id="1" parent="0" />
        <mxCell id="fPCI9npbfLgmKvdJxHjB-1" style="edgeStyle=orthogonalEdgeStyle;rounded=0;orthogonalLoop=1;jettySize=auto;html=1;exitX=0.5;exitY=1;exitDx=0;exitDy=0;entryX=0.5;entryY=0;entryDx=0;entryDy=0;endArrow=none;endFill=0;" edge="1" parent="1" source="fPCI9npbfLgmKvdJxHjB-7" target="fPCI9npbfLgmKvdJxHjB-8">
          <mxGeometry relative="1" as="geometry" />
        </mxCell>
        <mxCell id="fPCI9npbfLgmKvdJxHjB-2" style="edgeStyle=orthogonalEdgeStyle;rounded=0;orthogonalLoop=1;jettySize=auto;html=1;exitX=0.5;exitY=1;exitDx=0;exitDy=0;endArrow=none;endFill=0;" edge="1" parent="1" source="fPCI9npbfLgmKvdJxHjB-7" target="fPCI9npbfLgmKvdJxHjB-9">
          <mxGeometry relative="1" as="geometry" />
        </mxCell>
        <mxCell id="fPCI9npbfLgmKvdJxHjB-3" style="edgeStyle=orthogonalEdgeStyle;rounded=0;orthogonalLoop=1;jettySize=auto;html=1;exitX=0.5;exitY=1;exitDx=0;exitDy=0;entryX=0.5;entryY=0;entryDx=0;entryDy=0;endArrow=none;endFill=0;" edge="1" parent="1" source="fPCI9npbfLgmKvdJxHjB-7" target="fPCI9npbfLgmKvdJxHjB-10">
          <mxGeometry relative="1" as="geometry" />
        </mxCell>
        <mxCell id="fPCI9npbfLgmKvdJxHjB-5" style="edgeStyle=orthogonalEdgeStyle;rounded=0;orthogonalLoop=1;jettySize=auto;html=1;exitX=0.5;exitY=1;exitDx=0;exitDy=0;endArrow=none;endFill=0;" edge="1" parent="1" source="fPCI9npbfLgmKvdJxHjB-7" target="fPCI9npbfLgmKvdJxHjB-12">
          <mxGeometry relative="1" as="geometry" />
        </mxCell>
        <mxCell id="fPCI9npbfLgmKvdJxHjB-6" style="edgeStyle=orthogonalEdgeStyle;rounded=0;orthogonalLoop=1;jettySize=auto;html=1;exitX=0.5;exitY=1;exitDx=0;exitDy=0;entryX=0.5;entryY=0;entryDx=0;entryDy=0;endArrow=none;endFill=0;" edge="1" parent="1" source="fPCI9npbfLgmKvdJxHjB-7" target="fPCI9npbfLgmKvdJxHjB-13">
          <mxGeometry relative="1" as="geometry" />
        </mxCell>
        <mxCell id="fPCI9npbfLgmKvdJxHjB-7" value="Disposici칩n de recursos informativos&lt;br&gt;(0)" style="rounded=0;whiteSpace=wrap;html=1;fillColor=#ffe6cc;strokeColor=#d79b00;" vertex="1" parent="1">
          <mxGeometry x="434" y="60" width="120" height="60" as="geometry" />
        </mxCell>
        <mxCell id="fPCI9npbfLgmKvdJxHjB-26" style="edgeStyle=orthogonalEdgeStyle;rounded=0;orthogonalLoop=1;jettySize=auto;html=1;exitX=0.5;exitY=1;exitDx=0;exitDy=0;endArrow=none;endFill=0;" edge="1" parent="1" source="fPCI9npbfLgmKvdJxHjB-8" target="fPCI9npbfLgmKvdJxHjB-23">
          <mxGeometry relative="1" as="geometry" />
        </mxCell>
        <mxCell id="fPCI9npbfLgmKvdJxHjB-27" style="edgeStyle=orthogonalEdgeStyle;rounded=0;orthogonalLoop=1;jettySize=auto;html=1;exitX=0.5;exitY=1;exitDx=0;exitDy=0;endArrow=none;endFill=0;" edge="1" parent="1" source="fPCI9npbfLgmKvdJxHjB-8" target="fPCI9npbfLgmKvdJxHjB-22">
          <mxGeometry relative="1" as="geometry" />
        </mxCell>
        <mxCell id="fPCI9npbfLgmKvdJxHjB-28" style="edgeStyle=orthogonalEdgeStyle;rounded=0;orthogonalLoop=1;jettySize=auto;html=1;exitX=0.5;exitY=1;exitDx=0;exitDy=0;endArrow=none;endFill=0;" edge="1" parent="1" source="fPCI9npbfLgmKvdJxHjB-8" target="fPCI9npbfLgmKvdJxHjB-21">
          <mxGeometry relative="1" as="geometry" />
        </mxCell>
        <mxCell id="fPCI9npbfLgmKvdJxHjB-29" style="edgeStyle=orthogonalEdgeStyle;rounded=0;orthogonalLoop=1;jettySize=auto;html=1;exitX=0.5;exitY=1;exitDx=0;exitDy=0;endArrow=none;endFill=0;" edge="1" parent="1" source="fPCI9npbfLgmKvdJxHjB-8" target="fPCI9npbfLgmKvdJxHjB-20">
          <mxGeometry relative="1" as="geometry" />
        </mxCell>
        <mxCell id="fPCI9npbfLgmKvdJxHjB-8" value="Iniciar la aplicaci칩n&lt;br&gt;(1)" style="rounded=0;whiteSpace=wrap;html=1;fillColor=#ffe6cc;strokeColor=#d79b00;" vertex="1" parent="1">
          <mxGeometry x="-90" y="210" width="120" height="60" as="geometry" />
        </mxCell>
        <mxCell id="fPCI9npbfLgmKvdJxHjB-48" style="edgeStyle=orthogonalEdgeStyle;rounded=0;orthogonalLoop=1;jettySize=auto;html=1;exitX=0.5;exitY=1;exitDx=0;exitDy=0;endArrow=none;endFill=0;" edge="1" parent="1" source="fPCI9npbfLgmKvdJxHjB-9" target="fPCI9npbfLgmKvdJxHjB-44">
          <mxGeometry relative="1" as="geometry">
            <Array as="points">
              <mxPoint x="410" y="410" />
              <mxPoint x="220" y="410" />
            </Array>
          </mxGeometry>
        </mxCell>
        <mxCell id="fPCI9npbfLgmKvdJxHjB-49" style="edgeStyle=orthogonalEdgeStyle;rounded=0;orthogonalLoop=1;jettySize=auto;html=1;exitX=0.5;exitY=1;exitDx=0;exitDy=0;endArrow=none;endFill=0;" edge="1" parent="1" source="fPCI9npbfLgmKvdJxHjB-9" target="fPCI9npbfLgmKvdJxHjB-45">
          <mxGeometry relative="1" as="geometry">
            <Array as="points">
              <mxPoint x="410" y="440" />
              <mxPoint x="410" y="440" />
            </Array>
          </mxGeometry>
        </mxCell>
        <mxCell id="fPCI9npbfLgmKvdJxHjB-51" style="edgeStyle=orthogonalEdgeStyle;rounded=0;orthogonalLoop=1;jettySize=auto;html=1;exitX=0.5;exitY=1;exitDx=0;exitDy=0;endArrow=none;endFill=0;" edge="1" parent="1" source="fPCI9npbfLgmKvdJxHjB-9" target="fPCI9npbfLgmKvdJxHjB-50">
          <mxGeometry relative="1" as="geometry">
            <Array as="points">
              <mxPoint x="410" y="410" />
              <mxPoint x="600" y="410" />
            </Array>
          </mxGeometry>
        </mxCell>
        <mxCell id="fPCI9npbfLgmKvdJxHjB-9" value="Acceder a Foros&lt;br&gt;(3)" style="rounded=0;whiteSpace=wrap;html=1;fillColor=#ffe6cc;strokeColor=#d79b00;" vertex="1" parent="1">
          <mxGeometry x="350" y="210" width="120" height="60" as="geometry" />
        </mxCell>
        <mxCell id="fPCI9npbfLgmKvdJxHjB-75" style="edgeStyle=orthogonalEdgeStyle;rounded=0;orthogonalLoop=1;jettySize=auto;html=1;exitX=0.5;exitY=1;exitDx=0;exitDy=0;entryX=0.5;entryY=0;entryDx=0;entryDy=0;endArrow=none;endFill=0;" edge="1" parent="1" source="fPCI9npbfLgmKvdJxHjB-10" target="fPCI9npbfLgmKvdJxHjB-72">
          <mxGeometry relative="1" as="geometry" />
        </mxCell>
        <mxCell id="fPCI9npbfLgmKvdJxHjB-76" style="edgeStyle=orthogonalEdgeStyle;rounded=0;orthogonalLoop=1;jettySize=auto;html=1;exitX=0.5;exitY=1;exitDx=0;exitDy=0;entryX=0.5;entryY=0;entryDx=0;entryDy=0;endArrow=none;endFill=0;" edge="1" parent="1" source="fPCI9npbfLgmKvdJxHjB-10" target="fPCI9npbfLgmKvdJxHjB-73">
          <mxGeometry relative="1" as="geometry" />
        </mxCell>
        <mxCell id="fPCI9npbfLgmKvdJxHjB-10" value="Configurar notificaciones&lt;br&gt;(4)" style="rounded=0;whiteSpace=wrap;html=1;fillColor=#ffe6cc;strokeColor=#d79b00;" vertex="1" parent="1">
          <mxGeometry x="680" y="210" width="120" height="60" as="geometry" />
        </mxCell>
        <mxCell id="fPCI9npbfLgmKvdJxHjB-69" style="edgeStyle=orthogonalEdgeStyle;rounded=0;orthogonalLoop=1;jettySize=auto;html=1;exitX=0.5;exitY=1;exitDx=0;exitDy=0;endArrow=none;endFill=0;" edge="1" parent="1" source="fPCI9npbfLgmKvdJxHjB-12" target="fPCI9npbfLgmKvdJxHjB-66">
          <mxGeometry relative="1" as="geometry">
            <Array as="points">
              <mxPoint x="1020" y="410" />
              <mxPoint x="930" y="410" />
            </Array>
          </mxGeometry>
        </mxCell>
        <mxCell id="fPCI9npbfLgmKvdJxHjB-70" style="edgeStyle=orthogonalEdgeStyle;rounded=0;orthogonalLoop=1;jettySize=auto;html=1;exitX=0.5;exitY=1;exitDx=0;exitDy=0;endArrow=none;endFill=0;" edge="1" parent="1" source="fPCI9npbfLgmKvdJxHjB-12" target="fPCI9npbfLgmKvdJxHjB-67">
          <mxGeometry relative="1" as="geometry">
            <Array as="points">
              <mxPoint x="1020" y="410" />
              <mxPoint x="1060" y="410" />
            </Array>
          </mxGeometry>
        </mxCell>
        <mxCell id="fPCI9npbfLgmKvdJxHjB-71" style="edgeStyle=orthogonalEdgeStyle;rounded=0;orthogonalLoop=1;jettySize=auto;html=1;exitX=0.5;exitY=1;exitDx=0;exitDy=0;endArrow=none;endFill=0;" edge="1" parent="1" source="fPCI9npbfLgmKvdJxHjB-12" target="fPCI9npbfLgmKvdJxHjB-68">
          <mxGeometry relative="1" as="geometry">
            <Array as="points">
              <mxPoint x="1020" y="410" />
              <mxPoint x="1193" y="410" />
            </Array>
          </mxGeometry>
        </mxCell>
        <mxCell id="fPCI9npbfLgmKvdJxHjB-12" value="Salir de la aplicaci칩n&lt;br&gt;(5)" style="rounded=0;whiteSpace=wrap;html=1;fillColor=#ffe6cc;strokeColor=#d79b00;" vertex="1" parent="1">
          <mxGeometry x="960" y="210" width="120" height="60" as="geometry" />
        </mxCell>
        <mxCell id="fPCI9npbfLgmKvdJxHjB-34" style="edgeStyle=orthogonalEdgeStyle;rounded=0;orthogonalLoop=1;jettySize=auto;html=1;exitX=0.5;exitY=1;exitDx=0;exitDy=0;endArrow=none;endFill=0;" edge="1" parent="1" source="fPCI9npbfLgmKvdJxHjB-13" target="fPCI9npbfLgmKvdJxHjB-30">
          <mxGeometry relative="1" as="geometry">
            <Array as="points">
              <mxPoint x="180" y="370" />
              <mxPoint x="90" y="370" />
              <mxPoint x="90" y="670" />
              <mxPoint x="-680" y="670" />
            </Array>
          </mxGeometry>
        </mxCell>
        <mxCell id="fPCI9npbfLgmKvdJxHjB-35" style="edgeStyle=orthogonalEdgeStyle;rounded=0;orthogonalLoop=1;jettySize=auto;html=1;exitX=0.5;exitY=1;exitDx=0;exitDy=0;endArrow=none;endFill=0;" edge="1" parent="1" source="fPCI9npbfLgmKvdJxHjB-13" target="fPCI9npbfLgmKvdJxHjB-31">
          <mxGeometry relative="1" as="geometry">
            <Array as="points">
              <mxPoint x="180" y="370" />
              <mxPoint x="90" y="370" />
              <mxPoint x="90" y="670" />
              <mxPoint x="-570" y="670" />
            </Array>
          </mxGeometry>
        </mxCell>
        <mxCell id="fPCI9npbfLgmKvdJxHjB-36" style="edgeStyle=orthogonalEdgeStyle;rounded=0;orthogonalLoop=1;jettySize=auto;html=1;exitX=0.5;exitY=1;exitDx=0;exitDy=0;endArrow=none;endFill=0;" edge="1" parent="1" source="fPCI9npbfLgmKvdJxHjB-13" target="fPCI9npbfLgmKvdJxHjB-32">
          <mxGeometry relative="1" as="geometry">
            <Array as="points">
              <mxPoint x="180" y="370" />
              <mxPoint x="90" y="370" />
              <mxPoint x="90" y="670" />
              <mxPoint x="-420" y="670" />
            </Array>
          </mxGeometry>
        </mxCell>
        <mxCell id="fPCI9npbfLgmKvdJxHjB-37" style="edgeStyle=orthogonalEdgeStyle;rounded=0;orthogonalLoop=1;jettySize=auto;html=1;exitX=0.5;exitY=1;exitDx=0;exitDy=0;endArrow=none;endFill=0;" edge="1" parent="1" source="fPCI9npbfLgmKvdJxHjB-13" target="fPCI9npbfLgmKvdJxHjB-33">
          <mxGeometry relative="1" as="geometry">
            <Array as="points">
              <mxPoint x="180" y="370" />
              <mxPoint x="90" y="370" />
              <mxPoint x="90" y="670" />
              <mxPoint x="-300" y="670" />
            </Array>
          </mxGeometry>
        </mxCell>
        <mxCell id="fPCI9npbfLgmKvdJxHjB-39" style="edgeStyle=orthogonalEdgeStyle;rounded=0;orthogonalLoop=1;jettySize=auto;html=1;exitX=0.5;exitY=1;exitDx=0;exitDy=0;endArrow=none;endFill=0;" edge="1" parent="1" source="fPCI9npbfLgmKvdJxHjB-13" target="fPCI9npbfLgmKvdJxHjB-38">
          <mxGeometry relative="1" as="geometry">
            <mxPoint x="170" y="370" as="sourcePoint" />
            <Array as="points">
              <mxPoint x="180" y="370" />
              <mxPoint x="90" y="370" />
              <mxPoint x="90" y="670" />
              <mxPoint x="-140" y="670" />
            </Array>
          </mxGeometry>
        </mxCell>
        <mxCell id="fPCI9npbfLgmKvdJxHjB-41" style="edgeStyle=orthogonalEdgeStyle;rounded=0;orthogonalLoop=1;jettySize=auto;html=1;exitX=0.5;exitY=1;exitDx=0;exitDy=0;endArrow=none;endFill=0;" edge="1" parent="1" source="fPCI9npbfLgmKvdJxHjB-13" target="fPCI9npbfLgmKvdJxHjB-40">
          <mxGeometry relative="1" as="geometry">
            <Array as="points">
              <mxPoint x="180" y="370" />
              <mxPoint x="90" y="370" />
              <mxPoint x="90" y="670" />
              <mxPoint x="-10" y="670" />
            </Array>
          </mxGeometry>
        </mxCell>
        <mxCell id="fPCI9npbfLgmKvdJxHjB-43" style="edgeStyle=orthogonalEdgeStyle;rounded=0;orthogonalLoop=1;jettySize=auto;html=1;exitX=0.5;exitY=1;exitDx=0;exitDy=0;endArrow=none;endFill=0;" edge="1" parent="1">
          <mxGeometry relative="1" as="geometry">
            <mxPoint x="180" y="270" as="sourcePoint" />
            <mxPoint x="140" y="730" as="targetPoint" />
            <Array as="points">
              <mxPoint x="180" y="370" />
              <mxPoint x="90" y="370" />
              <mxPoint x="90" y="670" />
              <mxPoint x="140" y="670" />
            </Array>
          </mxGeometry>
        </mxCell>
        <mxCell id="fPCI9npbfLgmKvdJxHjB-13" value="Acceder a Seminarios&lt;br&gt;(2)" style="rounded=0;whiteSpace=wrap;html=1;fillColor=#ffe6cc;strokeColor=#d79b00;" vertex="1" parent="1">
          <mxGeometry x="120" y="210" width="120" height="60" as="geometry" />
        </mxCell>
        <mxCell id="fPCI9npbfLgmKvdJxHjB-15" value="&lt;b&gt;Plan 2:&lt;/b&gt;&lt;br&gt;&lt;div style=&quot;&quot;&gt;&lt;span style=&quot;background-color: initial;&quot;&gt;Hacer 2.1,2.2, 2.3,&lt;/span&gt;&lt;/div&gt;&lt;div style=&quot;&quot;&gt;&lt;span style=&quot;background-color: initial;&quot;&gt;2.4, 2.5, 2.6, 2.7&lt;/span&gt;&lt;/div&gt;" style="text;html=1;strokeColor=none;fillColor=none;align=left;verticalAlign=middle;whiteSpace=wrap;rounded=0;" vertex="1" parent="1">
          <mxGeometry x="50" y="290" width="110" height="60" as="geometry" />
        </mxCell>
        <mxCell id="fPCI9npbfLgmKvdJxHjB-16" value="&lt;b&gt;Plan 3:&lt;/b&gt;&lt;br&gt;&lt;div style=&quot;&quot;&gt;&lt;span style=&quot;background-color: initial;&quot;&gt;Hacer 3.1, 3.2, 3.3, 3.4&lt;/span&gt;&lt;/div&gt;" style="text;html=1;strokeColor=none;fillColor=none;align=left;verticalAlign=middle;whiteSpace=wrap;rounded=0;" vertex="1" parent="1">
          <mxGeometry x="270" y="290" width="110" height="60" as="geometry" />
        </mxCell>
        <mxCell id="fPCI9npbfLgmKvdJxHjB-17" value="&lt;b&gt;Plan 4:&lt;/b&gt;&lt;br&gt;&lt;div style=&quot;&quot;&gt;&lt;span style=&quot;background-color: initial;&quot;&gt;Hacer 4.1, 4.2&lt;/span&gt;&lt;/div&gt;" style="text;html=1;strokeColor=none;fillColor=none;align=left;verticalAlign=middle;whiteSpace=wrap;rounded=0;" vertex="1" parent="1">
          <mxGeometry x="580" y="240" width="110" height="60" as="geometry" />
        </mxCell>
        <mxCell id="fPCI9npbfLgmKvdJxHjB-19" value="&lt;b&gt;Plan 5:&lt;/b&gt;&lt;br&gt;&lt;div style=&quot;&quot;&gt;&lt;span style=&quot;background-color: initial;&quot;&gt;Hacer 5.1, 5.2&lt;/span&gt;&lt;/div&gt;&lt;div style=&quot;&quot;&gt;&lt;span style=&quot;background-color: initial;&quot;&gt;Si es necesario&lt;/span&gt;&lt;/div&gt;&lt;div style=&quot;&quot;&gt;&lt;span style=&quot;background-color: initial;&quot;&gt;hacer 5.3&lt;/span&gt;&lt;/div&gt;" style="text;html=1;strokeColor=none;fillColor=none;align=left;verticalAlign=middle;whiteSpace=wrap;rounded=0;" vertex="1" parent="1">
          <mxGeometry x="910" y="290" width="110" height="60" as="geometry" />
        </mxCell>
        <mxCell id="fPCI9npbfLgmKvdJxHjB-20" value="Abrir men칰 de inicio&lt;br&gt;(1.1)" style="rounded=0;whiteSpace=wrap;html=1;fillColor=#fff2cc;strokeColor=#d6b656;" vertex="1" parent="1">
          <mxGeometry x="-480" y="460" width="120" height="60" as="geometry" />
        </mxCell>
        <mxCell id="fPCI9npbfLgmKvdJxHjB-21" value="Buscar aplicaci칩n&lt;br&gt;(1.2)" style="rounded=0;whiteSpace=wrap;html=1;fillColor=#fff2cc;strokeColor=#d6b656;" vertex="1" parent="1">
          <mxGeometry x="-350" y="460" width="120" height="60" as="geometry" />
        </mxCell>
        <mxCell id="fPCI9npbfLgmKvdJxHjB-22" value="Registrarse en la&lt;br&gt;aplicaci칩n&lt;br&gt;(1.3)" style="rounded=0;whiteSpace=wrap;html=1;fillColor=#fff2cc;strokeColor=#d6b656;" vertex="1" parent="1">
          <mxGeometry x="-220" y="460" width="120" height="60" as="geometry" />
        </mxCell>
        <mxCell id="fPCI9npbfLgmKvdJxHjB-23" value="Iniciar sesi칩n&lt;br&gt;(1.4)" style="rounded=0;whiteSpace=wrap;html=1;fillColor=#fff2cc;strokeColor=#d6b656;" vertex="1" parent="1">
          <mxGeometry x="-90" y="460" width="120" height="60" as="geometry" />
        </mxCell>
        <mxCell id="fPCI9npbfLgmKvdJxHjB-24" value="&lt;b&gt;Plan 1:&lt;/b&gt;&lt;br&gt;&lt;div style=&quot;&quot;&gt;&lt;span style=&quot;background-color: initial;&quot;&gt;Hacer 1.1, 1.2, 1.4&lt;/span&gt;&lt;/div&gt;&lt;div style=&quot;&quot;&gt;&lt;span style=&quot;background-color: initial;&quot;&gt;Si es necesario hacer 1.3&lt;/span&gt;&lt;/div&gt;" style="text;html=1;strokeColor=none;fillColor=none;align=left;verticalAlign=middle;whiteSpace=wrap;rounded=0;" vertex="1" parent="1">
          <mxGeometry x="-180" y="290" width="110" height="60" as="geometry" />
        </mxCell>
        <mxCell id="fPCI9npbfLgmKvdJxHjB-30" value="Ver cat치logo de seminarios&lt;br&gt;(2.1)" style="rounded=0;whiteSpace=wrap;html=1;fillColor=#fff2cc;strokeColor=#d6b656;" vertex="1" parent="1">
          <mxGeometry x="-750" y="730" width="120" height="60" as="geometry" />
        </mxCell>
        <mxCell id="fPCI9npbfLgmKvdJxHjB-31" value="Seleccionar seminario de inter칠s&lt;br&gt;(2.2)" style="rounded=0;whiteSpace=wrap;html=1;fillColor=#fff2cc;strokeColor=#d6b656;" vertex="1" parent="1">
          <mxGeometry x="-620" y="730" width="120" height="60" as="geometry" />
        </mxCell>
        <mxCell id="fPCI9npbfLgmKvdJxHjB-32" value="Inscribirse en el seminario &lt;br&gt;(2.3)" style="rounded=0;whiteSpace=wrap;html=1;fillColor=#fff2cc;strokeColor=#d6b656;" vertex="1" parent="1">
          <mxGeometry x="-490" y="730" width="120" height="60" as="geometry" />
        </mxCell>
        <mxCell id="fPCI9npbfLgmKvdJxHjB-33" value="Confirmaci칩n de inscripci칩n&lt;br&gt;(2.4)" style="rounded=0;whiteSpace=wrap;html=1;fillColor=#fff2cc;strokeColor=#d6b656;" vertex="1" parent="1">
          <mxGeometry x="-360" y="730" width="120" height="60" as="geometry" />
        </mxCell>
        <mxCell id="fPCI9npbfLgmKvdJxHjB-38" value="Acceso a las distintas sesiones del seminario&lt;br&gt;(2.5)" style="rounded=0;whiteSpace=wrap;html=1;fillColor=#fff2cc;strokeColor=#d6b656;" vertex="1" parent="1">
          <mxGeometry x="-220" y="730" width="120" height="60" as="geometry" />
        </mxCell>
        <mxCell id="fPCI9npbfLgmKvdJxHjB-40" value="Interactuar con los asistentes&lt;br&gt;(2.6)" style="rounded=0;whiteSpace=wrap;html=1;fillColor=#fff2cc;strokeColor=#d6b656;" vertex="1" parent="1">
          <mxGeometry x="-85" y="730" width="120" height="60" as="geometry" />
        </mxCell>
        <mxCell id="fPCI9npbfLgmKvdJxHjB-42" value="Valorar el seminairo&lt;br&gt;(2.7)" style="rounded=0;whiteSpace=wrap;html=1;fillColor=#fff2cc;strokeColor=#d6b656;" vertex="1" parent="1">
          <mxGeometry x="71" y="730" width="120" height="60" as="geometry" />
        </mxCell>
        <mxCell id="fPCI9npbfLgmKvdJxHjB-53" style="edgeStyle=orthogonalEdgeStyle;rounded=0;orthogonalLoop=1;jettySize=auto;html=1;exitX=0.5;exitY=1;exitDx=0;exitDy=0;entryX=0.5;entryY=0;entryDx=0;entryDy=0;endArrow=none;endFill=0;" edge="1" parent="1" source="fPCI9npbfLgmKvdJxHjB-44" target="fPCI9npbfLgmKvdJxHjB-52">
          <mxGeometry relative="1" as="geometry" />
        </mxCell>
        <mxCell id="fPCI9npbfLgmKvdJxHjB-55" style="edgeStyle=orthogonalEdgeStyle;rounded=0;orthogonalLoop=1;jettySize=auto;html=1;exitX=0.5;exitY=1;exitDx=0;exitDy=0;entryX=0.5;entryY=0;entryDx=0;entryDy=0;endArrow=none;endFill=0;" edge="1" parent="1" source="fPCI9npbfLgmKvdJxHjB-44" target="fPCI9npbfLgmKvdJxHjB-54">
          <mxGeometry relative="1" as="geometry" />
        </mxCell>
        <mxCell id="fPCI9npbfLgmKvdJxHjB-44" value="Buscar foros relevantes&lt;br&gt;(3.1)" style="rounded=0;whiteSpace=wrap;html=1;fillColor=#fff2cc;strokeColor=#d6b656;" vertex="1" parent="1">
          <mxGeometry x="160" y="460" width="120" height="60" as="geometry" />
        </mxCell>
        <mxCell id="fPCI9npbfLgmKvdJxHjB-58" style="edgeStyle=orthogonalEdgeStyle;rounded=0;orthogonalLoop=1;jettySize=auto;html=1;exitX=0.5;exitY=1;exitDx=0;exitDy=0;entryX=0.5;entryY=0;entryDx=0;entryDy=0;endArrow=none;endFill=0;" edge="1" parent="1" source="fPCI9npbfLgmKvdJxHjB-45" target="fPCI9npbfLgmKvdJxHjB-56">
          <mxGeometry relative="1" as="geometry" />
        </mxCell>
        <mxCell id="fPCI9npbfLgmKvdJxHjB-59" style="edgeStyle=orthogonalEdgeStyle;rounded=0;orthogonalLoop=1;jettySize=auto;html=1;exitX=0.5;exitY=1;exitDx=0;exitDy=0;endArrow=none;endFill=0;" edge="1" parent="1" source="fPCI9npbfLgmKvdJxHjB-45" target="fPCI9npbfLgmKvdJxHjB-57">
          <mxGeometry relative="1" as="geometry" />
        </mxCell>
        <mxCell id="fPCI9npbfLgmKvdJxHjB-61" style="edgeStyle=orthogonalEdgeStyle;rounded=0;orthogonalLoop=1;jettySize=auto;html=1;exitX=0.5;exitY=1;exitDx=0;exitDy=0;entryX=0.5;entryY=0;entryDx=0;entryDy=0;endArrow=none;endFill=0;" edge="1" parent="1" source="fPCI9npbfLgmKvdJxHjB-45" target="fPCI9npbfLgmKvdJxHjB-60">
          <mxGeometry relative="1" as="geometry" />
        </mxCell>
        <mxCell id="fPCI9npbfLgmKvdJxHjB-45" value="Navegaci칩n por temas y discusiones&amp;nbsp;&lt;br&gt;interesantes&lt;br&gt;(3.2)" style="rounded=0;whiteSpace=wrap;html=1;fillColor=#fff2cc;strokeColor=#d6b656;" vertex="1" parent="1">
          <mxGeometry x="334" y="460" width="120" height="60" as="geometry" />
        </mxCell>
        <mxCell id="fPCI9npbfLgmKvdJxHjB-62" style="edgeStyle=orthogonalEdgeStyle;rounded=0;orthogonalLoop=1;jettySize=auto;html=1;exitX=0.5;exitY=1;exitDx=0;exitDy=0;endArrow=none;endFill=0;entryX=0.373;entryY=0.01;entryDx=0;entryDy=0;entryPerimeter=0;" edge="1" parent="1" source="fPCI9npbfLgmKvdJxHjB-50" target="fPCI9npbfLgmKvdJxHjB-63">
          <mxGeometry relative="1" as="geometry">
            <mxPoint x="890" y="570" as="targetPoint" />
            <Array as="points">
              <mxPoint x="594" y="530" />
              <mxPoint x="845" y="530" />
            </Array>
          </mxGeometry>
        </mxCell>
        <mxCell id="fPCI9npbfLgmKvdJxHjB-65" style="edgeStyle=orthogonalEdgeStyle;rounded=0;orthogonalLoop=1;jettySize=auto;html=1;exitX=0.5;exitY=1;exitDx=0;exitDy=0;endArrow=none;endFill=0;" edge="1" parent="1" source="fPCI9npbfLgmKvdJxHjB-50" target="fPCI9npbfLgmKvdJxHjB-64">
          <mxGeometry relative="1" as="geometry">
            <Array as="points">
              <mxPoint x="594" y="530" />
              <mxPoint x="990" y="530" />
            </Array>
          </mxGeometry>
        </mxCell>
        <mxCell id="fPCI9npbfLgmKvdJxHjB-50" value="Publicaci칩n preguntas y obtenci칩n respuestas&lt;br&gt;(3.3)" style="rounded=0;whiteSpace=wrap;html=1;fillColor=#fff2cc;strokeColor=#d6b656;" vertex="1" parent="1">
          <mxGeometry x="534" y="460" width="120" height="60" as="geometry" />
        </mxCell>
        <mxCell id="fPCI9npbfLgmKvdJxHjB-52" value="Utilizar motores de b칰squeda&lt;br&gt;(3.1.1)" style="rounded=0;whiteSpace=wrap;html=1;fillColor=#d5e8d4;strokeColor=#82b366;" vertex="1" parent="1">
          <mxGeometry x="100" y="565" width="120" height="60" as="geometry" />
        </mxCell>
        <mxCell id="fPCI9npbfLgmKvdJxHjB-54" value="Registrarse en el foro&lt;br&gt;(3.1.2)" style="rounded=0;whiteSpace=wrap;html=1;fillColor=#d5e8d4;strokeColor=#82b366;" vertex="1" parent="1">
          <mxGeometry x="240" y="565" width="120" height="60" as="geometry" />
        </mxCell>
        <mxCell id="fPCI9npbfLgmKvdJxHjB-56" value="Seleccionar tema de inter칠s&lt;br&gt;(3.2.1)" style="rounded=0;whiteSpace=wrap;html=1;fillColor=#d5e8d4;strokeColor=#82b366;" vertex="1" parent="1">
          <mxGeometry x="370" y="565" width="120" height="60" as="geometry" />
        </mxCell>
        <mxCell id="fPCI9npbfLgmKvdJxHjB-57" value="Leer preguntas y respuestas&lt;br&gt;(3.2.2)" style="rounded=0;whiteSpace=wrap;html=1;fillColor=#d5e8d4;strokeColor=#82b366;" vertex="1" parent="1">
          <mxGeometry x="504" y="565" width="120" height="60" as="geometry" />
        </mxCell>
        <mxCell id="fPCI9npbfLgmKvdJxHjB-60" value="Contribuir a la&amp;nbsp;&lt;br&gt;conversaci칩n&lt;br&gt;(3.2.3)" style="rounded=0;whiteSpace=wrap;html=1;fillColor=#d5e8d4;strokeColor=#82b366;" vertex="1" parent="1">
          <mxGeometry x="654" y="565" width="120" height="60" as="geometry" />
        </mxCell>
        <mxCell id="fPCI9npbfLgmKvdJxHjB-63" value="Crear hilo con las preguntas&lt;br&gt;(3.3.1)" style="rounded=0;whiteSpace=wrap;html=1;fillColor=#d5e8d4;strokeColor=#82b366;" vertex="1" parent="1">
          <mxGeometry x="800" y="565" width="120" height="60" as="geometry" />
        </mxCell>
        <mxCell id="fPCI9npbfLgmKvdJxHjB-64" value="Consultar hilo&lt;br&gt;(3.3.1)" style="rounded=0;whiteSpace=wrap;html=1;fillColor=#d5e8d4;strokeColor=#82b366;" vertex="1" parent="1">
          <mxGeometry x="930" y="565" width="120" height="60" as="geometry" />
        </mxCell>
        <mxCell id="fPCI9npbfLgmKvdJxHjB-66" value="Cerrar sesi칩n&lt;br&gt;(5.1)" style="rounded=0;whiteSpace=wrap;html=1;fillColor=#fff2cc;strokeColor=#d6b656;" vertex="1" parent="1">
          <mxGeometry x="870" y="450" width="120" height="60" as="geometry" />
        </mxCell>
        <mxCell id="fPCI9npbfLgmKvdJxHjB-67" value="Confirmaci칩n de salida de la aplicaci칩n&lt;br&gt;(5.2)" style="rounded=0;whiteSpace=wrap;html=1;fillColor=#fff2cc;strokeColor=#d6b656;" vertex="1" parent="1">
          <mxGeometry x="1000" y="450" width="120" height="60" as="geometry" />
        </mxCell>
        <mxCell id="fPCI9npbfLgmKvdJxHjB-68" value="Rechazo de salida&lt;br&gt;de la aplicaci칩n&lt;br&gt;(5.3)" style="rounded=0;whiteSpace=wrap;html=1;fillColor=#fff2cc;strokeColor=#d6b656;" vertex="1" parent="1">
          <mxGeometry x="1133" y="450" width="120" height="60" as="geometry" />
        </mxCell>
        <mxCell id="fPCI9npbfLgmKvdJxHjB-72" value="Ajustar preferencias&lt;br&gt;(4.1)" style="rounded=0;whiteSpace=wrap;html=1;fillColor=#fff2cc;strokeColor=#d6b656;" vertex="1" parent="1">
          <mxGeometry x="600" y="330" width="120" height="60" as="geometry" />
        </mxCell>
        <mxCell id="fPCI9npbfLgmKvdJxHjB-73" value="Programar recordatorios&lt;br&gt;de seminarios&lt;br&gt;(4.2)" style="rounded=0;whiteSpace=wrap;html=1;fillColor=#fff2cc;strokeColor=#d6b656;" vertex="1" parent="1">
          <mxGeometry x="760" y="330" width="120" height="60" as="geometry" />
        </mxCell>
      </root>
    </mxGraphModel>
  </diagram>
</mxfile>
